<?xml version="1.0" encoding="UTF-8" standalone="no" ?>
<!DOCTYPE svg PUBLIC "-//W3C//DTD SVG 1.1//EN" "http://www.w3.org/Graphics/SVG/1.1/DTD/svg11.dtd">
<svg xmlns="http://www.w3.org/2000/svg" xmlns:xlink="http://www.w3.org/1999/xlink" version="1.1" width="1080" height="1080" viewBox="0 0 1080 1080" xml:space="preserve">
<desc>Created with Fabric.js 5.2.4</desc>
<defs>
</defs>
<rect x="0" y="0" width="100%" height="100%" fill="transparent"></rect>
<g transform="matrix(1 0 0 1 540 540)" id="dfaebc14-b7e8-4542-9dee-3a37dbe29c38"  >
<rect style="stroke: none; stroke-width: 1; stroke-dasharray: none; stroke-linecap: butt; stroke-dashoffset: 0; stroke-linejoin: miter; stroke-miterlimit: 4; fill: rgb(255,255,255); fill-rule: nonzero; opacity: 1; visibility: hidden;" vector-effect="non-scaling-stroke"  x="-540" y="-540" rx="0" ry="0" width="1080" height="1080" />
</g>
<g transform="matrix(1 0 0 1 540 540)" id="1e4510ce-73fe-428a-b242-a24657624c19"  >
</g>
<g transform="matrix(NaN NaN NaN NaN 0 0)"  >
<g style=""   >
</g>
</g>
<g transform="matrix(9.74 0 0 9.74 540 539.85)" id="9a2be26a-fcd7-49b6-a051-7cc8228117c4"  >
<path style="stroke: rgb(0,0,0); stroke-width: 0; stroke-dasharray: none; stroke-linecap: butt; stroke-dashoffset: 0; stroke-linejoin: miter; stroke-miterlimit: 4; fill: rgb(255,255,255); fill-rule: nonzero; opacity: 1;" vector-effect="non-scaling-stroke"  transform=" translate(-45, -45)" d="M 85.131 65.321 C 88.237 59.212 90 52.31 90 45 C 90 37.69 88.237 30.789 85.131 24.68 C 85.074 24.561 85.017 24.444 84.952 24.331 C 77.451 9.892 62.364 0 45 0 C 27.634 0 12.545 9.895 5.045 24.336 C 4.983 24.442999999999998 4.929 24.554 4.875 24.666999999999998 C 1.766 30.779 0 37.685 0 45 C 0 52.263 1.74 59.123 4.809 65.203 C 4.877 65.35600000000001 4.954 65.501 5.035 65.644 C 12.531 80.097 27.626 90 45 90 C 62.364000000000004 90 77.451 80.108 84.952 65.67 C 85.017 65.557 85.074 65.44 85.131 65.321 z M 45 80 C 42.399 80 38.334 73.95 35.96 63.356 C 41.985 62.895 48.015 62.894 54.039 63.355000000000004 C 51.666 73.95 47.601 80 45 80 z M 34.439 53.45 C 34.199 50.79900000000001 34.061 47.982 34.061 45 C 34.061 42.018 34.199 39.201 34.439 36.55 C 37.96 36.840999999999994 41.482 37.004 45.005 37.004 C 48.525000000000006 37.004 52.044000000000004 36.842 55.562000000000005 36.550999999999995 C 55.80200000000001 39.202 55.940000000000005 42.01899999999999 55.940000000000005 44.99999999999999 C 55.940000000000005 47.980999999999995 55.803000000000004 50.79699999999999 55.562000000000005 53.44799999999999 C 48.523 52.867 41.477 52.867 34.439 53.45 z M 10 45 C 10 40.701 10.783 36.584 12.207 32.775999999999996 C 16.302 33.833999999999996 20.407 34.678999999999995 24.516 35.339 C 24.215999999999998 38.519 24.061 41.760999999999996 24.061 45 C 24.061 48.239000000000004 24.217 51.481 24.516 54.661 C 20.406999999999996 55.321 16.302999999999997 56.166000000000004 12.206999999999999 57.225 C 10.783 53.417 10 49.299 10 45 z M 45 10 C 47.601 10 51.666 16.05 54.04 26.645 C 48.016 27.105999999999998 41.985 27.105999999999998 35.961 26.644 C 38.334 16.05 42.399 10 45 10 z M 65.484 35.341 C 69.59299999999999 34.681000000000004 73.698 33.836 77.79299999999999 32.778 C 79.217 36.585 80 40.702 80 45 C 80 49.298 79.217 53.415 77.794 57.222 C 73.698 56.164 69.594 55.319 65.485 54.659 C 65.785 51.479 65.94 48.238 65.94 45 C 65.939 41.762 65.784 38.52 65.484 35.341 z M 72.753 23.71 C 69.844 24.397000000000002 66.931 24.977 64.015 25.447000000000003 C 63.117 21.122000000000003 61.906 17.094 60.388 13.573000000000002 C 65.251 15.964 69.478 19.452 72.753 23.71 z M 29.612 13.573 C 28.095 17.093 26.883999999999997 21.121000000000002 25.985999999999997 25.445 C 23.069999999999997 24.974 20.157999999999998 24.395 17.248999999999995 23.708 C 20.523 19.451 24.75 15.964 29.612 13.573 z M 17.249 66.292 C 20.157999999999998 65.605 23.07 65.025 25.985999999999997 64.555 C 26.883999999999997 68.879 28.095 72.90700000000001 29.612 76.427 C 24.75 74.036 20.523 70.549 17.249 66.292 z M 60.388 76.427 C 61.906 72.906 63.116 68.878 64.015 64.55300000000001 C 66.931 65.02300000000001 69.844 65.60300000000001 72.753 66.29 C 69.479 70.548 65.251 74.036 60.388 76.427 z" stroke-linecap="round" />
</g>
<g transform="matrix(NaN NaN NaN NaN 0 0)"  >
<g style=""   >
</g>
</g>
</svg>